<mxfile host="app.diagrams.net" agent="Mozilla/5.0 (Windows NT 10.0; Win64; x64) AppleWebKit/537.36 (KHTML, like Gecko) Chrome/134.0.0.0 Safari/537.36" version="26.1.0">
  <diagram name="1 oldal" id="IvLlQeGWjaaHONuoIWRb">
    <mxGraphModel dx="1034" dy="446" grid="1" gridSize="10" guides="1" tooltips="1" connect="1" arrows="1" fold="1" page="1" pageScale="1" pageWidth="827" pageHeight="1169" math="0" shadow="0">
      <root>
        <mxCell id="0" />
        <mxCell id="1" parent="0" />
        <mxCell id="NtxmPjOoi_2e30PbO-7I-1" value="&lt;b&gt;A&lt;/b&gt;" style="rounded=0;whiteSpace=wrap;html=1;" vertex="1" parent="1">
          <mxGeometry x="115" y="180" width="120" height="60" as="geometry" />
        </mxCell>
        <mxCell id="NtxmPjOoi_2e30PbO-7I-3" value="&lt;u&gt;B&lt;/u&gt;" style="ellipse;whiteSpace=wrap;html=1;" vertex="1" parent="1">
          <mxGeometry x="30" y="290" width="70" height="40" as="geometry" />
        </mxCell>
        <mxCell id="NtxmPjOoi_2e30PbO-7I-4" value="D" style="ellipse;whiteSpace=wrap;html=1;" vertex="1" parent="1">
          <mxGeometry x="250" y="290" width="70" height="40" as="geometry" />
        </mxCell>
        <mxCell id="NtxmPjOoi_2e30PbO-7I-5" value="C" style="ellipse;whiteSpace=wrap;html=1;" vertex="1" parent="1">
          <mxGeometry x="140" y="290" width="70" height="40" as="geometry" />
        </mxCell>
        <mxCell id="NtxmPjOoi_2e30PbO-7I-6" value="D3" style="ellipse;whiteSpace=wrap;html=1;" vertex="1" parent="1">
          <mxGeometry x="330" y="350" width="70" height="40" as="geometry" />
        </mxCell>
        <mxCell id="NtxmPjOoi_2e30PbO-7I-7" value="D2" style="ellipse;whiteSpace=wrap;html=1;" vertex="1" parent="1">
          <mxGeometry x="250" y="350" width="70" height="40" as="geometry" />
        </mxCell>
        <mxCell id="NtxmPjOoi_2e30PbO-7I-8" value="D1" style="ellipse;whiteSpace=wrap;html=1;" vertex="1" parent="1">
          <mxGeometry x="170" y="350" width="70" height="40" as="geometry" />
        </mxCell>
        <mxCell id="NtxmPjOoi_2e30PbO-7I-9" value="" style="endArrow=none;html=1;rounded=0;entryX=0.5;entryY=1;entryDx=0;entryDy=0;" edge="1" parent="1" target="NtxmPjOoi_2e30PbO-7I-1">
          <mxGeometry width="50" height="50" relative="1" as="geometry">
            <mxPoint x="70" y="290" as="sourcePoint" />
            <mxPoint x="120" y="240" as="targetPoint" />
          </mxGeometry>
        </mxCell>
        <mxCell id="NtxmPjOoi_2e30PbO-7I-10" value="" style="endArrow=none;html=1;rounded=0;entryX=0.5;entryY=1;entryDx=0;entryDy=0;exitX=0.5;exitY=0;exitDx=0;exitDy=0;" edge="1" parent="1" source="NtxmPjOoi_2e30PbO-7I-5" target="NtxmPjOoi_2e30PbO-7I-1">
          <mxGeometry width="50" height="50" relative="1" as="geometry">
            <mxPoint x="175" y="280" as="sourcePoint" />
            <mxPoint x="195" y="250" as="targetPoint" />
          </mxGeometry>
        </mxCell>
        <mxCell id="NtxmPjOoi_2e30PbO-7I-11" value="" style="endArrow=none;html=1;rounded=0;entryX=0.5;entryY=0;entryDx=0;entryDy=0;exitX=0.5;exitY=1;exitDx=0;exitDy=0;" edge="1" parent="1" source="NtxmPjOoi_2e30PbO-7I-1" target="NtxmPjOoi_2e30PbO-7I-4">
          <mxGeometry width="50" height="50" relative="1" as="geometry">
            <mxPoint x="250" y="260" as="sourcePoint" />
            <mxPoint x="355" y="210" as="targetPoint" />
          </mxGeometry>
        </mxCell>
        <mxCell id="NtxmPjOoi_2e30PbO-7I-12" value="" style="endArrow=none;html=1;rounded=0;entryX=0.5;entryY=0;entryDx=0;entryDy=0;" edge="1" parent="1" target="NtxmPjOoi_2e30PbO-7I-6">
          <mxGeometry width="50" height="50" relative="1" as="geometry">
            <mxPoint x="279" y="330" as="sourcePoint" />
            <mxPoint x="549" y="350" as="targetPoint" />
          </mxGeometry>
        </mxCell>
        <mxCell id="NtxmPjOoi_2e30PbO-7I-13" value="" style="endArrow=none;html=1;rounded=0;" edge="1" parent="1">
          <mxGeometry width="50" height="50" relative="1" as="geometry">
            <mxPoint x="280" y="350" as="sourcePoint" />
            <mxPoint x="280" y="330" as="targetPoint" />
          </mxGeometry>
        </mxCell>
        <mxCell id="NtxmPjOoi_2e30PbO-7I-14" value="" style="endArrow=none;html=1;rounded=0;entryX=0.5;entryY=1;entryDx=0;entryDy=0;" edge="1" parent="1" target="NtxmPjOoi_2e30PbO-7I-4">
          <mxGeometry width="50" height="50" relative="1" as="geometry">
            <mxPoint x="200" y="350" as="sourcePoint" />
            <mxPoint x="305" y="300" as="targetPoint" />
          </mxGeometry>
        </mxCell>
        <mxCell id="NtxmPjOoi_2e30PbO-7I-15" value="&lt;b&gt;E&lt;/b&gt;" style="rounded=0;whiteSpace=wrap;html=1;" vertex="1" parent="1">
          <mxGeometry x="600" y="180" width="120" height="60" as="geometry" />
        </mxCell>
        <mxCell id="NtxmPjOoi_2e30PbO-7I-16" value="&lt;u&gt;F&lt;/u&gt;" style="ellipse;whiteSpace=wrap;html=1;" vertex="1" parent="1">
          <mxGeometry x="490" y="290" width="70" height="40" as="geometry" />
        </mxCell>
        <mxCell id="NtxmPjOoi_2e30PbO-7I-17" value="H" style="ellipse;whiteSpace=wrap;html=1;" vertex="1" parent="1">
          <mxGeometry x="670" y="290" width="70" height="40" as="geometry" />
        </mxCell>
        <mxCell id="NtxmPjOoi_2e30PbO-7I-18" value="G" style="ellipse;whiteSpace=wrap;html=1;" vertex="1" parent="1">
          <mxGeometry x="580" y="290" width="70" height="40" as="geometry" />
        </mxCell>
        <mxCell id="NtxmPjOoi_2e30PbO-7I-19" value="" style="ellipse;whiteSpace=wrap;html=1;" vertex="1" parent="1">
          <mxGeometry x="750" y="290" width="70" height="40" as="geometry" />
        </mxCell>
        <mxCell id="NtxmPjOoi_2e30PbO-7I-20" value="" style="endArrow=none;html=1;rounded=0;" edge="1" parent="1">
          <mxGeometry width="50" height="50" relative="1" as="geometry">
            <mxPoint x="530" y="290" as="sourcePoint" />
            <mxPoint x="660" y="240" as="targetPoint" />
          </mxGeometry>
        </mxCell>
        <mxCell id="NtxmPjOoi_2e30PbO-7I-21" value="" style="endArrow=none;html=1;rounded=0;entryX=0.5;entryY=1;entryDx=0;entryDy=0;" edge="1" parent="1" target="NtxmPjOoi_2e30PbO-7I-15">
          <mxGeometry width="50" height="50" relative="1" as="geometry">
            <mxPoint x="616" y="290" as="sourcePoint" />
            <mxPoint x="740" y="242" as="targetPoint" />
          </mxGeometry>
        </mxCell>
        <mxCell id="NtxmPjOoi_2e30PbO-7I-22" value="" style="endArrow=none;html=1;rounded=0;entryX=0.5;entryY=0;entryDx=0;entryDy=0;" edge="1" parent="1" target="NtxmPjOoi_2e30PbO-7I-19">
          <mxGeometry width="50" height="50" relative="1" as="geometry">
            <mxPoint x="660" y="240" as="sourcePoint" />
            <mxPoint x="784" y="192" as="targetPoint" />
          </mxGeometry>
        </mxCell>
        <mxCell id="NtxmPjOoi_2e30PbO-7I-23" value="" style="endArrow=none;html=1;rounded=0;entryX=0.5;entryY=0;entryDx=0;entryDy=0;" edge="1" parent="1" target="NtxmPjOoi_2e30PbO-7I-17">
          <mxGeometry width="50" height="50" relative="1" as="geometry">
            <mxPoint x="660" y="240" as="sourcePoint" />
            <mxPoint x="784" y="192" as="targetPoint" />
          </mxGeometry>
        </mxCell>
        <mxCell id="NtxmPjOoi_2e30PbO-7I-24" value="A-E" style="rhombus;whiteSpace=wrap;html=1;" vertex="1" parent="1">
          <mxGeometry x="373.5" y="170" width="80" height="80" as="geometry" />
        </mxCell>
        <mxCell id="NtxmPjOoi_2e30PbO-7I-25" value="K" style="ellipse;whiteSpace=wrap;html=1;dashed=1;dashPattern=8 8;" vertex="1" parent="1">
          <mxGeometry x="440" y="70" width="70" height="40" as="geometry" />
        </mxCell>
        <mxCell id="NtxmPjOoi_2e30PbO-7I-26" value="J" style="ellipse;whiteSpace=wrap;html=1;" vertex="1" parent="1">
          <mxGeometry x="330" y="70" width="70" height="40" as="geometry" />
        </mxCell>
        <mxCell id="NtxmPjOoi_2e30PbO-7I-27" value="" style="endArrow=classic;html=1;rounded=0;exitX=0;exitY=0.5;exitDx=0;exitDy=0;entryX=1;entryY=0.5;entryDx=0;entryDy=0;" edge="1" parent="1" source="NtxmPjOoi_2e30PbO-7I-24" target="NtxmPjOoi_2e30PbO-7I-1">
          <mxGeometry width="50" height="50" relative="1" as="geometry">
            <mxPoint x="365" y="220" as="sourcePoint" />
            <mxPoint x="330" y="70" as="targetPoint" />
          </mxGeometry>
        </mxCell>
        <mxCell id="NtxmPjOoi_2e30PbO-7I-28" value="" style="endArrow=classic;html=1;rounded=0;" edge="1" parent="1">
          <mxGeometry width="50" height="50" relative="1" as="geometry">
            <mxPoint x="453.5" y="210" as="sourcePoint" />
            <mxPoint x="590" y="210" as="targetPoint" />
          </mxGeometry>
        </mxCell>
        <mxCell id="NtxmPjOoi_2e30PbO-7I-29" value="" style="endArrow=classic;html=1;rounded=0;exitX=0;exitY=0.5;exitDx=0;exitDy=0;entryX=0;entryY=0.5;entryDx=0;entryDy=0;" edge="1" parent="1">
          <mxGeometry width="50" height="50" relative="1" as="geometry">
            <mxPoint x="450" y="209.5" as="sourcePoint" />
            <mxPoint x="600" y="209.5" as="targetPoint" />
          </mxGeometry>
        </mxCell>
        <mxCell id="NtxmPjOoi_2e30PbO-7I-30" value="" style="endArrow=none;html=1;rounded=0;entryX=0.5;entryY=1;entryDx=0;entryDy=0;" edge="1" parent="1" target="NtxmPjOoi_2e30PbO-7I-25">
          <mxGeometry width="50" height="50" relative="1" as="geometry">
            <mxPoint x="414" y="170" as="sourcePoint" />
            <mxPoint x="464" y="120" as="targetPoint" />
          </mxGeometry>
        </mxCell>
        <mxCell id="NtxmPjOoi_2e30PbO-7I-31" value="" style="endArrow=none;html=1;rounded=0;entryX=0.5;entryY=0;entryDx=0;entryDy=0;exitX=0.5;exitY=1;exitDx=0;exitDy=0;" edge="1" parent="1" source="NtxmPjOoi_2e30PbO-7I-26" target="NtxmPjOoi_2e30PbO-7I-24">
          <mxGeometry width="50" height="50" relative="1" as="geometry">
            <mxPoint x="339" y="130" as="sourcePoint" />
            <mxPoint x="400" y="130" as="targetPoint" />
          </mxGeometry>
        </mxCell>
        <mxCell id="NtxmPjOoi_2e30PbO-7I-32" value="I" style="ellipse;whiteSpace=wrap;html=1;" vertex="1" parent="1">
          <mxGeometry x="760" y="295" width="50" height="30" as="geometry" />
        </mxCell>
      </root>
    </mxGraphModel>
  </diagram>
</mxfile>
